# xmcd
#
# Track frame offsets:
#	150
#	9587
#	20866
#	37104
#	46830
#	57827
#	68011
#	77052
#	94238
#	102893
#	118774
#	133206
#	135406
#	154161
#	171965
#	182589
#	192267
#	205724
#	212839
#	231360
#	248525
#	270945
#	280342
#	293956
#	309125
#	324450
#	331426
#
# Disc length: 4536 seconds
#
# Revision: 1
# Processed by: cddbd v1.5.2PL0 Copyright (c) Steve Scherf et al.
# Submitted via: EZCDAudioConverter 2.4.0.1
#
DISCID=8411b61b
DTITLE=Slim Critchlow - Cowboy Songs ''The Crooked Trail To Hollywood''
DYEAR=1970
DGENRE=Cowboy
TTITLE0=The Crooked Trail to Holbrook
TTITLE1=Borax Bill
TTITLE2=The Trail to Mexico
TTITLE3=Forty a Month and Found
TTITLE4=The Brazos River
TTITLE5=D-Bar-2 Horse Wrangler
TTITLE6=Windy Bill
TTITLE7=Good Bye, Old Paint
TTITLE8=The Bucking Bronco
TTITLE9=I'd Like to Be In Texas
TTITLE10=Zebra Dun
TTITLE11=Ten Thousand Cattle
TTITLE12=Driftin' Cowboy
TTITLE13=Red River Valley
TTITLE14=The High Tone Dance
TTITLE15=The Old Cowboy
TTITLE16=State of Arkansas
TTITLE17=The Habit
TTITLE18=Strawberry Roan
TTITLE19=The Buffalo Skinners
TTITLE20=Cowboy's Lament
TTITLE21=The Wild Buckaroo
TTITLE22=Snagtooth Sal
TTITLE23=The Trusty Lariat
TTITLE24=John Garner's Trail Herd
TTITLE25=Whiskey Bill
TTITLE26=The Last Wagon
EXTD=
EXTT0=
EXTT1=
EXTT2=
EXTT3=
EXTT4=
EXTT5=
EXTT6=
EXTT7=
EXTT8=
EXTT9=
EXTT10=
EXTT11=
EXTT12=
EXTT13=
EXTT14=
EXTT15=
EXTT16=
EXTT17=
EXTT18=
EXTT19=
EXTT20=
EXTT21=
EXTT22=
EXTT23=
EXTT24=
EXTT25=
EXTT26=
PLAYORDER=
